<svg width="244" height="81" viewBox="0 0 244 81" fill="none" xmlns="http://www.w3.org/2000/svg">
<g filter="url(#filter0_bi_1_1193)">
<rect x="0.666687" y="0.667969" width="243.333" height="80" rx="12" fill="url(#paint0_linear_1_1193)"/>
<rect x="1.74669" y="1.74797" width="241.173" height="77.84" rx="10.92" stroke="url(#paint1_linear_1_1193)" stroke-width="2.16"/>
<g filter="url(#filter1_i_1_1193)">
<path d="M61.817 27.6417C62.454 26.5576 62.0732 25.1729 60.9664 24.5489C59.8596 23.9249 58.446 24.2979 57.809 25.3821L56.6979 27.273L55.5868 25.3821C54.9498 24.2979 53.5362 23.9249 52.4294 24.5489C51.3227 25.1729 50.9418 26.5576 51.5789 27.6417L54.0301 31.8135L46.2769 45.0087H40.0307C38.7537 45.0087 37.7184 46.0228 37.7184 47.2736C37.7184 48.5245 38.7537 49.5386 40.0307 49.5386H61.7867C61.9774 49.0476 62.1783 48.2052 61.9647 47.4309C61.6435 46.267 60.4553 45.0087 58.4642 45.0087H51.6126L61.817 27.6417Z" fill="url(#paint2_linear_1_1193)"/>
<path d="M61.817 27.6417C62.454 26.5576 62.0732 25.1729 60.9664 24.5489C59.8596 23.9249 58.446 24.2979 57.809 25.3821L56.6979 27.273L55.5868 25.3821C54.9498 24.2979 53.5362 23.9249 52.4294 24.5489C51.3227 25.1729 50.9418 26.5576 51.5789 27.6417L54.0301 31.8135L46.2769 45.0087H40.0307C38.7537 45.0087 37.7184 46.0228 37.7184 47.2736C37.7184 48.5245 38.7537 49.5386 40.0307 49.5386H61.7867C61.9774 49.0476 62.1783 48.2052 61.9647 47.4309C61.6435 46.267 60.4553 45.0087 58.4642 45.0087H51.6126L61.817 27.6417Z" fill="black" fill-opacity="0.6"/>
<path d="M47.4793 52.0431C47.0848 51.614 46.2009 50.9282 45.4258 50.7025C44.2441 50.3583 43.3482 50.5743 42.8962 50.7623L41.1739 53.6936C40.5368 54.7777 40.9177 56.1624 42.0244 56.7864C43.1312 57.4104 44.5448 57.0373 45.1819 55.9532L47.4793 52.0431Z" fill="url(#paint3_linear_1_1193)"/>
<path d="M47.4793 52.0431C47.0848 51.614 46.2009 50.9282 45.4258 50.7025C44.2441 50.3583 43.3482 50.5743 42.8962 50.7623L41.1739 53.6936C40.5368 54.7777 40.9177 56.1624 42.0244 56.7864C43.1312 57.4104 44.5448 57.0373 45.1819 55.9532L47.4793 52.0431Z" fill="black" fill-opacity="0.6"/>
<path d="M69.7806 49.5386H73.301C74.578 49.5386 75.6132 48.5245 75.6132 47.2736C75.6132 46.0228 74.578 45.0087 73.301 45.0087H67.119L60.1553 33.1572C59.638 33.6387 58.6462 34.8689 58.4963 36.2636C58.3036 38.0567 58.5927 39.5666 59.4597 41.0451C62.3749 46.0159 65.2946 50.9846 68.214 55.9532C68.851 57.0373 70.2646 57.4104 71.3714 56.7864C72.4782 56.1624 72.859 54.7777 72.222 53.6936L69.7806 49.5386Z" fill="url(#paint4_linear_1_1193)"/>
<path d="M69.7806 49.5386H73.301C74.578 49.5386 75.6132 48.5245 75.6132 47.2736C75.6132 46.0228 74.578 45.0087 73.301 45.0087H67.119L60.1553 33.1572C59.638 33.6387 58.6462 34.8689 58.4963 36.2636C58.3036 38.0567 58.5927 39.5666 59.4597 41.0451C62.3749 46.0159 65.2946 50.9846 68.214 55.9532C68.851 57.0373 70.2646 57.4104 71.3714 56.7864C72.4782 56.1624 72.859 54.7777 72.222 53.6936L69.7806 49.5386Z" fill="black" fill-opacity="0.6"/>
</g>
<path d="M55.4334 28.016L56.6979 30.1682L57.9625 28.016L59.0735 26.1251L57.8213 25.3893L59.0735 26.1251C59.2983 25.7425 59.8238 25.5884 60.2461 25.8265C60.6512 26.0549 60.7665 26.5345 60.5525 26.8987L50.348 44.2657L49.0497 46.4754H51.6126H58.4642C59.7597 46.4754 60.3954 47.2579 60.5508 47.821C60.5707 47.8932 60.5836 47.9773 60.5881 48.0719H40.0307C39.535 48.0719 39.1851 47.6861 39.1851 47.2736C39.1851 46.8612 39.535 46.4754 40.0307 46.4754H46.2769H47.1162L47.5414 45.7517L55.2946 32.5565L55.7312 31.8135L55.2946 31.0704L52.8434 26.8987C52.6294 26.5345 52.7446 26.0549 53.1497 25.8265C53.572 25.5884 54.0975 25.7425 54.3223 26.1251L55.4334 28.016ZM45.0158 52.1107C45.1561 52.1515 45.3532 52.2437 45.5784 52.3832L43.9173 55.2102C43.6925 55.5927 43.167 55.7468 42.7447 55.5088C42.3396 55.2804 42.2244 54.8008 42.4384 54.4366L43.8639 52.0106C44.1417 51.9703 44.5324 51.9699 45.0158 52.1107ZM59.9546 36.4203C59.9725 36.254 60.0123 36.082 60.0705 35.908L65.8545 45.7517L66.2797 46.4754H67.119H73.301C73.7967 46.4754 74.1465 46.8612 74.1465 47.2736C74.1465 47.6861 73.7967 48.0719 73.301 48.0719H69.7806H67.2177L68.5161 50.2816L70.9575 54.4366C71.1715 54.8008 71.0562 55.2804 70.6511 55.5088C70.2288 55.7468 69.7033 55.5927 69.4785 55.2102L69.1378 54.6302C66.3319 49.8549 63.5262 45.08 60.7249 40.3032L60.7249 40.3032C60.0323 39.1221 59.7921 37.9327 59.9546 36.4203Z" stroke="url(#paint5_linear_1_1193)" stroke-width="2.93333"/>
<path d="M94.7292 48.668V47.3555L95.8542 47.1992L101.156 33.5013H102.917L108.125 47.1992L109.24 47.3555V48.668H104.885V47.3555L106.031 47.1576L105.031 44.3659H98.9583L97.9271 47.1576L99.0729 47.3555V48.668H94.7292ZM99.5938 42.6471H104.406L102.177 36.4805L102.052 36.1367H101.99L101.865 36.4805L99.5938 42.6471ZM110.823 48.668V47.3555L112.521 47.0638V35.1159L110.823 34.8242V33.5013H112.521H117.792C118.875 33.5013 119.799 33.6923 120.563 34.0742C121.326 34.4492 121.91 34.977 122.313 35.6576C122.715 36.3381 122.917 37.1332 122.917 38.043C122.917 38.9596 122.715 39.7582 122.313 40.4388C121.91 41.1194 121.326 41.6471 120.563 42.0221C119.799 42.3971 118.875 42.5846 117.792 42.5846H114.573V47.0638L116.271 47.3555V48.668H110.823ZM114.573 40.9805H117.792C118.819 40.9805 119.587 40.7062 120.094 40.1576C120.608 39.602 120.865 38.9041 120.865 38.0638C120.865 37.2235 120.608 36.5221 120.094 35.9596C119.587 35.3971 118.819 35.1159 117.792 35.1159H114.573V40.9805ZM124.344 48.668V47.3555L126.042 47.0638V35.1159L124.344 34.8242V33.5013H126.042H131.313C132.396 33.5013 133.319 33.6923 134.083 34.0742C134.847 34.4492 135.431 34.977 135.833 35.6576C136.236 36.3381 136.438 37.1332 136.438 38.043C136.438 38.9596 136.236 39.7582 135.833 40.4388C135.431 41.1194 134.847 41.6471 134.083 42.0221C133.319 42.3971 132.396 42.5846 131.313 42.5846H128.094V47.0638L129.792 47.3555V48.668H124.344ZM128.094 40.9805H131.313C132.34 40.9805 133.108 40.7062 133.615 40.1576C134.128 39.602 134.385 38.9041 134.385 38.0638C134.385 37.2235 134.128 36.5221 133.615 35.9596C133.108 35.3971 132.34 35.1159 131.313 35.1159H128.094V40.9805ZM148.646 48.8867C147.722 48.8867 146.833 48.7513 145.979 48.4805C145.125 48.2096 144.309 47.793 143.531 47.2305V43.9909H145.125L145.469 46.3763C145.92 46.6541 146.41 46.8694 146.938 47.0221C147.465 47.1749 148.035 47.2513 148.646 47.2513C149.34 47.2513 149.927 47.1471 150.406 46.9388C150.892 46.7235 151.264 46.4284 151.521 46.0534C151.778 45.6784 151.906 45.2409 151.906 44.7409C151.906 44.2756 151.795 43.8659 151.573 43.5117C151.351 43.1576 150.983 42.8485 150.469 42.5846C149.962 42.3138 149.267 42.0777 148.385 41.8763C147.344 41.6332 146.462 41.3103 145.74 40.9076C145.024 40.4978 144.479 40.0048 144.104 39.4284C143.736 38.8451 143.552 38.1784 143.552 37.4284C143.552 36.6367 143.76 35.9284 144.177 35.3034C144.601 34.6784 145.188 34.1853 145.938 33.8242C146.688 33.4631 147.563 33.2826 148.563 33.2826C149.625 33.2826 150.563 33.4457 151.375 33.7721C152.194 34.0916 152.868 34.4805 153.396 34.9388V37.9701H151.802L151.458 35.8034C151.146 35.5534 150.757 35.3451 150.292 35.1784C149.826 35.0117 149.25 34.9284 148.563 34.9284C147.979 34.9284 147.465 35.0326 147.021 35.2409C146.576 35.4423 146.229 35.727 145.979 36.0951C145.729 36.4631 145.604 36.8971 145.604 37.3971C145.604 37.8346 145.715 38.2166 145.938 38.543C146.167 38.8694 146.535 39.1576 147.042 39.4076C147.556 39.6506 148.24 39.8798 149.094 40.0951C150.691 40.4909 151.899 41.0777 152.719 41.8555C153.545 42.6263 153.958 43.5812 153.958 44.7201C153.958 45.5326 153.74 46.2548 153.302 46.8867C152.865 47.5117 152.247 48.0013 151.448 48.3555C150.656 48.7096 149.722 48.8867 148.646 48.8867ZM159.479 48.668V47.3555L161.177 47.0638V35.0534H157.74L157.438 37.1576H155.896V33.5013H168.5V37.1576H166.979L166.667 35.0534H163.229V47.0638L164.927 47.3555V48.668H159.479ZM176.281 48.8867C175.302 48.8867 174.424 48.6992 173.646 48.3242C172.868 47.9492 172.205 47.4214 171.656 46.7409C171.115 46.0534 170.698 45.2409 170.406 44.3034C170.122 43.3659 169.979 42.3312 169.979 41.1992V40.9805C169.979 39.8555 170.122 38.8242 170.406 37.8867C170.698 36.9423 171.115 36.1263 171.656 35.4388C172.205 34.7513 172.868 34.2201 173.646 33.8451C174.424 33.4701 175.302 33.2826 176.281 33.2826C177.316 33.2826 178.226 33.4701 179.01 33.8451C179.795 34.2201 180.451 34.7513 180.979 35.4388C181.514 36.1263 181.917 36.9423 182.188 37.8867C182.458 38.8242 182.594 39.8555 182.594 40.9805V41.1992C182.594 42.3312 182.458 43.3659 182.188 44.3034C181.917 45.2409 181.514 46.0534 180.979 46.7409C180.451 47.4214 179.795 47.9492 179.01 48.3242C178.226 48.6992 177.316 48.8867 176.281 48.8867ZM176.281 47.1784C177.288 47.1784 178.101 46.9284 178.719 46.4284C179.344 45.9284 179.802 45.2305 180.094 44.3346C180.385 43.4319 180.531 42.3867 180.531 41.1992V40.9596C180.531 39.7791 180.382 38.7444 180.083 37.8555C179.792 36.9596 179.333 36.2617 178.708 35.7617C178.083 35.2548 177.274 35.0013 176.281 35.0013C175.372 35.0013 174.601 35.2548 173.969 35.7617C173.337 36.2687 172.858 36.9701 172.531 37.8659C172.205 38.7548 172.042 39.786 172.042 40.9596V41.1992C172.042 42.3798 172.205 43.4214 172.531 44.3242C172.858 45.2201 173.337 45.9214 173.969 46.4284C174.601 46.9284 175.372 47.1784 176.281 47.1784ZM184.177 48.668V47.3555L185.875 47.0638V35.1159L184.177 34.8242V33.5117H190.938C192.042 33.5117 192.972 33.6784 193.729 34.0117C194.493 34.3381 195.073 34.8138 195.469 35.4388C195.865 36.0638 196.063 36.8277 196.063 37.7305C196.063 38.6194 195.868 39.3659 195.479 39.9701C195.097 40.5742 194.552 41.0326 193.844 41.3451C193.135 41.6506 192.295 41.8138 191.323 41.8346L187.927 41.8971V47.0638L189.625 47.3555V48.668H184.177ZM194.188 48.668L190.813 41.0951L192.865 41.0742L195.667 47.1367L196.719 47.3242V48.668H194.188ZM187.927 40.2826H190.729C191.875 40.2826 192.708 40.0638 193.229 39.6263C193.75 39.1888 194.01 38.5499 194.01 37.7096C194.01 36.911 193.76 36.2791 193.26 35.8138C192.76 35.3485 191.986 35.1159 190.938 35.1159H187.927V40.2826ZM198.615 48.668V47.3555L200.313 47.0638V35.1159L198.615 34.8242V33.5013H209.844V37.1471H208.198L207.969 35.0846H202.365V40.0221H207.958V41.6367H202.365V47.1263H208.302L208.531 45.0326H210.167V48.668H198.615Z" fill="url(#paint6_linear_1_1193)"/>
</g>
<defs>
<filter id="filter0_bi_1_1193" x="-29.5333" y="-29.532" width="303.733" height="140.4" filterUnits="userSpaceOnUse" color-interpolation-filters="sRGB">
<feFlood flood-opacity="0" result="BackgroundImageFix"/>
<feGaussianBlur in="BackgroundImageFix" stdDeviation="15.1"/>
<feComposite in2="SourceAlpha" operator="in" result="effect1_backgroundBlur_1_1193"/>
<feBlend mode="normal" in="SourceGraphic" in2="effect1_backgroundBlur_1_1193" result="shape"/>
<feColorMatrix in="SourceAlpha" type="matrix" values="0 0 0 0 0 0 0 0 0 0 0 0 0 0 0 0 0 0 127 0" result="hardAlpha"/>
<feOffset dx="-3.49333" dy="-2.15733"/>
<feGaussianBlur stdDeviation="2.82611"/>
<feComposite in2="hardAlpha" operator="arithmetic" k2="-1" k3="1"/>
<feColorMatrix type="matrix" values="0 0 0 0 0.980392 0 0 0 0 0.980392 0 0 0 0 0.980392 0 0 0 0.22 0"/>
<feBlend mode="normal" in2="shape" result="effect2_innerShadow_1_1193"/>
</filter>
<filter id="filter1_i_1_1193" x="34.8073" y="22.4466" width="40.8058" height="34.6421" filterUnits="userSpaceOnUse" color-interpolation-filters="sRGB">
<feFlood flood-opacity="0" result="BackgroundImageFix"/>
<feBlend mode="normal" in="SourceGraphic" in2="BackgroundImageFix" result="shape"/>
<feColorMatrix in="SourceAlpha" type="matrix" values="0 0 0 0 0 0 0 0 0 0 0 0 0 0 0 0 0 0 127 0" result="hardAlpha"/>
<feOffset dx="-2.91111" dy="-1.8"/>
<feGaussianBlur stdDeviation="2.57778"/>
<feComposite in2="hardAlpha" operator="arithmetic" k2="-1" k3="1"/>
<feColorMatrix type="matrix" values="0 0 0 0 0.980392 0 0 0 0 0.980392 0 0 0 0 0.980392 0 0 0 0.22 0"/>
<feBlend mode="normal" in2="shape" result="effect1_innerShadow_1_1193"/>
</filter>
<linearGradient id="paint0_linear_1_1193" x1="244" y1="0.667969" x2="230.477" y2="109.28" gradientUnits="userSpaceOnUse">
<stop stop-color="#D6D3C2" stop-opacity="0.2"/>
<stop offset="1" stop-color="#5C5C5C" stop-opacity="0.14"/>
</linearGradient>
<linearGradient id="paint1_linear_1_1193" x1="244" y1="0.667969" x2="230.477" y2="109.28" gradientUnits="userSpaceOnUse">
<stop stop-color="white"/>
<stop offset="1" stop-color="white" stop-opacity="0"/>
</linearGradient>
<linearGradient id="paint2_linear_1_1193" x1="75.6132" y1="24.2466" x2="62.1974" y2="65.1228" gradientUnits="userSpaceOnUse">
<stop stop-color="#D6D3C2" stop-opacity="0.2"/>
<stop offset="1" stop-color="#5C5C5C" stop-opacity="0.14"/>
</linearGradient>
<linearGradient id="paint3_linear_1_1193" x1="75.6132" y1="24.2466" x2="62.1974" y2="65.1228" gradientUnits="userSpaceOnUse">
<stop stop-color="#D6D3C2" stop-opacity="0.2"/>
<stop offset="1" stop-color="#5C5C5C" stop-opacity="0.14"/>
</linearGradient>
<linearGradient id="paint4_linear_1_1193" x1="75.6132" y1="24.2466" x2="62.1974" y2="65.1228" gradientUnits="userSpaceOnUse">
<stop stop-color="#D6D3C2" stop-opacity="0.2"/>
<stop offset="1" stop-color="#5C5C5C" stop-opacity="0.14"/>
</linearGradient>
<linearGradient id="paint5_linear_1_1193" x1="75.6132" y1="24.2466" x2="62.0577" y2="81.1178" gradientUnits="userSpaceOnUse">
<stop stop-color="#999999"/>
<stop offset="1" stop-color="#141414"/>
</linearGradient>
<linearGradient id="paint6_linear_1_1193" x1="81.8254" y1="67.268" x2="113.914" y2="-12.694" gradientUnits="userSpaceOnUse">
<stop stop-color="#B8956D"/>
<stop offset="1" stop-color="#CCBFAC"/>
</linearGradient>
</defs>
</svg>
