<svg width="271" height="81" viewBox="0 0 271 81" fill="none" xmlns="http://www.w3.org/2000/svg">
<g filter="url(#filter0_bi_1_1197)">
<rect x="0.333374" y="0.667969" width="270.333" height="80" rx="12" fill="url(#paint0_linear_1_1197)"/>
<rect x="1.41337" y="1.74797" width="268.173" height="77.84" rx="10.92" stroke="url(#paint1_linear_1_1197)" stroke-width="2.16"/>
<mask id="mask0_1_1197" style="mask-type:alpha" maskUnits="userSpaceOnUse" x="39" y="22" width="37" height="39">
<path d="M73.573 38.7157C75.4762 39.7393 75.4762 42.3823 73.573 43.4059L43.1348 59.7763C41.2812 60.7732 39.0004 59.4796 39.0004 57.4312L39.0004 24.6903C39.0004 22.642 41.2812 21.3483 43.1348 22.3452L73.573 38.7157Z" fill="#C4C4C4"/>
</mask>
<g mask="url(#mask0_1_1197)">
<g filter="url(#filter1_i_1_1197)">
<path d="M39.9611 60.1196L59.1181 40.9025L40.2766 22.002C39.5249 22.4826 39.0004 23.3125 39.0004 24.3195V58.0358C39.0004 58.895 39.3822 59.6252 39.9611 60.1196Z" fill="url(#paint2_linear_1_1197)"/>
<path d="M39.9611 60.1196L59.1181 40.9025L40.2766 22.002C39.5249 22.4826 39.0004 23.3125 39.0004 24.3195V58.0358C39.0004 58.895 39.3822 59.6252 39.9611 60.1196Z" fill="black" fill-opacity="0.6"/>
</g>
<path d="M40.2761 23.5293L57.595 40.9025L40.1241 58.4282C40.0947 58.3039 40.0791 58.1728 40.0791 58.0358V24.3195C40.0791 24.0279 40.1504 23.761 40.2761 23.5293Z" stroke="url(#paint3_linear_1_1197)" stroke-width="2.15733"/>
<g filter="url(#filter2_i_1_1197)">
<path d="M73.5884 38.8852C75.4704 39.8749 75.4704 42.4304 73.5884 43.4202L65.9951 47.4134L59.1176 40.8942L65.6444 34.7075L73.5884 38.8852Z" fill="url(#paint4_linear_1_1197)"/>
<path d="M73.5884 38.8852C75.4704 39.8749 75.4704 42.4304 73.5884 43.4202L65.9951 47.4134L59.1176 40.8942L65.6444 34.7075L73.5884 38.8852Z" fill="black" fill-opacity="0.6"/>
</g>
<path d="M73.0863 39.8399C74.1996 40.4253 74.1996 41.88 73.0863 42.4655L66.1767 46.0992L60.6855 40.8942L65.8259 36.0217L73.0863 39.8399Z" stroke="url(#paint5_linear_1_1197)" stroke-width="2.15733"/>
<g filter="url(#filter3_i_1_1197)">
<path d="M65.4708 47.7082L58.6577 41.0591L40.059 59.4621C40.8769 60.1512 42.1002 60.3621 43.1764 59.7794L65.4708 47.7082Z" fill="url(#paint6_linear_1_1197)"/>
<path d="M65.4708 47.7082L58.6577 41.0591L40.059 59.4621C40.8769 60.1512 42.1002 60.3621 43.1764 59.7794L65.4708 47.7082Z" fill="black" fill-opacity="0.6"/>
</g>
<path d="M42.0301 59.0293L58.6629 42.5714L63.6691 47.4571L42.6628 58.8308C42.4573 58.9421 42.243 59.0064 42.0301 59.0293Z" stroke="url(#paint7_linear_1_1197)" stroke-width="2.15733"/>
<g filter="url(#filter4_i_1_1197)">
<path d="M40.059 22.446L58.8344 41.0608L65.4708 34.5712L42.9442 22.3501C41.9703 21.8217 40.879 21.9278 40.059 22.446Z" fill="url(#paint8_linear_1_1197)"/>
<path d="M40.059 22.446L58.8344 41.0608L65.4708 34.5712L42.9442 22.3501C41.9703 21.8217 40.879 21.9278 40.059 22.446Z" fill="black" fill-opacity="0.6"/>
</g>
<path d="M63.6713 34.8222L58.8396 39.547L42.4758 23.3232L63.6713 34.8222Z" stroke="url(#paint9_linear_1_1197)" stroke-width="2.15733"/>
</g>
<path d="M101.354 48.8867C99.9514 48.8867 98.7362 48.5638 97.7084 47.918C96.6806 47.2652 95.8889 46.3624 95.3334 45.2096C94.7778 44.0569 94.5001 42.7235 94.5001 41.2096V40.9596C94.5001 39.4319 94.7778 38.0951 95.3334 36.9492C95.8959 35.7964 96.6632 34.8971 97.6355 34.2513C98.6077 33.6055 99.7119 33.2826 100.948 33.2826C102.129 33.2826 103.129 33.418 103.948 33.6888C104.774 33.9596 105.479 34.3242 106.063 34.7826V37.8451H104.375L104.156 35.6471C103.816 35.4249 103.399 35.2582 102.906 35.1471C102.413 35.0291 101.83 34.9701 101.156 34.9701C100.288 34.9701 99.507 35.2201 98.8126 35.7201C98.1181 36.2201 97.5695 36.918 97.1667 37.8138C96.7639 38.7027 96.5626 39.7444 96.5626 40.9388V41.2096C96.5626 42.418 96.7466 43.4735 97.1146 44.3763C97.4896 45.2721 98.0348 45.9701 98.7501 46.4701C99.4653 46.9631 100.333 47.2096 101.354 47.2096C102.049 47.2096 102.635 47.1506 103.115 47.0326C103.594 46.9076 104.017 46.7478 104.385 46.5534V42.9909L101.479 42.8867V41.3763H106.438V47.2513C106 47.661 105.372 48.036 104.552 48.3763C103.74 48.7166 102.674 48.8867 101.354 48.8867ZM114.99 48.8867C114.01 48.8867 113.132 48.6992 112.354 48.3242C111.576 47.9492 110.913 47.4214 110.365 46.7409C109.823 46.0534 109.406 45.2409 109.115 44.3034C108.83 43.3659 108.688 42.3312 108.688 41.1992V40.9805C108.688 39.8555 108.83 38.8242 109.115 37.8867C109.406 36.9423 109.823 36.1263 110.365 35.4388C110.913 34.7513 111.576 34.2201 112.354 33.8451C113.132 33.4701 114.01 33.2826 114.99 33.2826C116.024 33.2826 116.934 33.4701 117.719 33.8451C118.504 34.2201 119.16 34.7513 119.688 35.4388C120.222 36.1263 120.625 36.9423 120.896 37.8867C121.167 38.8242 121.302 39.8555 121.302 40.9805V41.1992C121.302 42.3312 121.167 43.3659 120.896 44.3034C120.625 45.2409 120.222 46.0534 119.688 46.7409C119.16 47.4214 118.504 47.9492 117.719 48.3242C116.934 48.6992 116.024 48.8867 114.99 48.8867ZM114.99 47.1784C115.997 47.1784 116.809 46.9284 117.427 46.4284C118.052 45.9284 118.51 45.2305 118.802 44.3346C119.094 43.4319 119.24 42.3867 119.24 41.1992V40.9596C119.24 39.7791 119.09 38.7444 118.792 37.8555C118.5 36.9596 118.042 36.2617 117.417 35.7617C116.792 35.2548 115.983 35.0013 114.99 35.0013C114.08 35.0013 113.309 35.2548 112.677 35.7617C112.045 36.2687 111.566 36.9701 111.24 37.8659C110.913 38.7548 110.75 39.786 110.75 40.9596V41.1992C110.75 42.3798 110.913 43.4214 111.24 44.3242C111.566 45.2201 112.045 45.9214 112.677 46.4284C113.309 46.9284 114.08 47.1784 114.99 47.1784ZM129.656 48.8867C128.677 48.8867 127.799 48.6992 127.021 48.3242C126.243 47.9492 125.58 47.4214 125.031 46.7409C124.49 46.0534 124.073 45.2409 123.781 44.3034C123.497 43.3659 123.354 42.3312 123.354 41.1992V40.9805C123.354 39.8555 123.497 38.8242 123.781 37.8867C124.073 36.9423 124.49 36.1263 125.031 35.4388C125.58 34.7513 126.243 34.2201 127.021 33.8451C127.799 33.4701 128.677 33.2826 129.656 33.2826C130.691 33.2826 131.601 33.4701 132.385 33.8451C133.17 34.2201 133.826 34.7513 134.354 35.4388C134.889 36.1263 135.292 36.9423 135.563 37.8867C135.833 38.8242 135.969 39.8555 135.969 40.9805V41.1992C135.969 42.3312 135.833 43.3659 135.563 44.3034C135.292 45.2409 134.889 46.0534 134.354 46.7409C133.826 47.4214 133.17 47.9492 132.385 48.3242C131.601 48.6992 130.691 48.8867 129.656 48.8867ZM129.656 47.1784C130.663 47.1784 131.476 46.9284 132.094 46.4284C132.719 45.9284 133.177 45.2305 133.469 44.3346C133.76 43.4319 133.906 42.3867 133.906 41.1992V40.9596C133.906 39.7791 133.757 38.7444 133.458 37.8555C133.167 36.9596 132.708 36.2617 132.083 35.7617C131.458 35.2548 130.649 35.0013 129.656 35.0013C128.747 35.0013 127.976 35.2548 127.344 35.7617C126.712 36.2687 126.233 36.9701 125.906 37.8659C125.58 38.7548 125.417 39.786 125.417 40.9596V41.1992C125.417 42.3798 125.58 43.4214 125.906 44.3242C126.233 45.2201 126.712 45.9214 127.344 46.4284C127.976 46.9284 128.747 47.1784 129.656 47.1784ZM144.979 48.8867C143.576 48.8867 142.361 48.5638 141.333 47.918C140.306 47.2652 139.514 46.3624 138.958 45.2096C138.403 44.0569 138.125 42.7235 138.125 41.2096V40.9596C138.125 39.4319 138.403 38.0951 138.958 36.9492C139.521 35.7964 140.288 34.8971 141.26 34.2513C142.233 33.6055 143.337 33.2826 144.573 33.2826C145.754 33.2826 146.754 33.418 147.573 33.6888C148.399 33.9596 149.104 34.3242 149.688 34.7826V37.8451H148L147.781 35.6471C147.441 35.4249 147.024 35.2582 146.531 35.1471C146.038 35.0291 145.455 34.9701 144.781 34.9701C143.913 34.9701 143.132 35.2201 142.438 35.7201C141.743 36.2201 141.194 36.918 140.792 37.8138C140.389 38.7027 140.188 39.7444 140.188 40.9388V41.2096C140.188 42.418 140.372 43.4735 140.74 44.3763C141.115 45.2721 141.66 45.9701 142.375 46.4701C143.09 46.9631 143.958 47.2096 144.979 47.2096C145.674 47.2096 146.26 47.1506 146.74 47.0326C147.219 46.9076 147.642 46.7478 148.01 46.5534V42.9909L145.104 42.8867V41.3763H150.063V47.2513C149.625 47.661 148.997 48.036 148.177 48.3763C147.365 48.7166 146.299 48.8867 144.979 48.8867ZM152.156 48.668V47.3555L153.854 47.0638V35.1159L152.156 34.8242V33.5013H153.854H155.906H157.604V34.8242L155.906 35.1159V47.0951H161.271L161.51 44.6992H163.083V48.668H152.156ZM164.76 48.668V47.3555L166.458 47.0638V35.1159L164.76 34.8242V33.5013H175.99V37.1471H174.344L174.115 35.0846H168.51V40.0221H174.104V41.6367H168.51V47.1263H174.448L174.677 45.0326H176.313V48.668H164.76ZM183.677 48.668V47.3555L185.375 47.0638V35.1159L183.677 34.8242V33.5013H185.375H190.646C191.729 33.5013 192.653 33.6923 193.417 34.0742C194.181 34.4492 194.764 34.977 195.167 35.6576C195.57 36.3381 195.771 37.1332 195.771 38.043C195.771 38.9596 195.57 39.7582 195.167 40.4388C194.764 41.1194 194.181 41.6471 193.417 42.0221C192.653 42.3971 191.729 42.5846 190.646 42.5846H187.427V47.0638L189.125 47.3555V48.668H183.677ZM187.427 40.9805H190.646C191.674 40.9805 192.441 40.7062 192.948 40.1576C193.462 39.602 193.719 38.9041 193.719 38.0638C193.719 37.2235 193.462 36.5221 192.948 35.9596C192.441 35.3971 191.674 35.1159 190.646 35.1159H187.427V40.9805ZM197.198 48.668V47.3555L198.896 47.0638V35.1159L197.198 34.8242V33.5013H198.896H200.948H202.646V34.8242L200.948 35.1159V47.0951H206.313L206.552 44.6992H208.125V48.668H197.198ZM209.896 48.668V47.3555L211.021 47.1992L216.323 33.5013H218.083L223.292 47.1992L224.406 47.3555V48.668H220.052V47.3555L221.198 47.1576L220.198 44.3659H214.125L213.094 47.1576L214.24 47.3555V48.668H209.896ZM214.76 42.6471H219.573L217.344 36.4805L217.219 36.1367H217.156L217.031 36.4805L214.76 42.6471ZM227.375 48.668V47.3555L229.073 47.0638V43.1471L224.406 35.0221L223.156 34.8242V33.5013H228.385V34.8242L226.656 35.0221L229.875 40.9805L230.094 41.3867L230.104 41.3659L230.313 40.9805L233.688 35.0221L231.896 34.8242V33.5013H237.021V34.8242L235.698 35.0221L231.115 42.9909V47.0638L232.813 47.3555V48.668H227.375Z" fill="url(#paint10_linear_1_1197)"/>
</g>
<defs>
<filter id="filter0_bi_1_1197" x="-29.8666" y="-29.532" width="330.733" height="140.4" filterUnits="userSpaceOnUse" color-interpolation-filters="sRGB">
<feFlood flood-opacity="0" result="BackgroundImageFix"/>
<feGaussianBlur in="BackgroundImageFix" stdDeviation="15.1"/>
<feComposite in2="SourceAlpha" operator="in" result="effect1_backgroundBlur_1_1197"/>
<feBlend mode="normal" in="SourceGraphic" in2="effect1_backgroundBlur_1_1197" result="shape"/>
<feColorMatrix in="SourceAlpha" type="matrix" values="0 0 0 0 0 0 0 0 0 0 0 0 0 0 0 0 0 0 127 0" result="hardAlpha"/>
<feOffset dx="-3.49333" dy="-2.15733"/>
<feGaussianBlur stdDeviation="2.82611"/>
<feComposite in2="hardAlpha" operator="arithmetic" k2="-1" k3="1"/>
<feColorMatrix type="matrix" values="0 0 0 0 0.980392 0 0 0 0 0.980392 0 0 0 0 0.980392 0 0 0 0.22 0"/>
<feBlend mode="normal" in2="shape" result="effect2_innerShadow_1_1197"/>
</filter>
<filter id="filter1_i_1_1197" x="35.951" y="20.8349" width="23.1671" height="39.2847" filterUnits="userSpaceOnUse" color-interpolation-filters="sRGB">
<feFlood flood-opacity="0" result="BackgroundImageFix"/>
<feBlend mode="normal" in="SourceGraphic" in2="BackgroundImageFix" result="shape"/>
<feColorMatrix in="SourceAlpha" type="matrix" values="0 0 0 0 0 0 0 0 0 0 0 0 0 0 0 0 0 0 127 0" result="hardAlpha"/>
<feOffset dx="-3.04941" dy="-1.16706"/>
<feGaussianBlur stdDeviation="3.99059"/>
<feComposite in2="hardAlpha" operator="arithmetic" k2="-1" k3="1"/>
<feColorMatrix type="matrix" values="0 0 0 0 0.980392 0 0 0 0 0.980392 0 0 0 0 0.980392 0 0 0 0.22 0"/>
<feBlend mode="normal" in2="shape" result="effect1_innerShadow_1_1197"/>
</filter>
<filter id="filter2_i_1_1197" x="56.0682" y="33.5405" width="18.9318" height="13.8729" filterUnits="userSpaceOnUse" color-interpolation-filters="sRGB">
<feFlood flood-opacity="0" result="BackgroundImageFix"/>
<feBlend mode="normal" in="SourceGraphic" in2="BackgroundImageFix" result="shape"/>
<feColorMatrix in="SourceAlpha" type="matrix" values="0 0 0 0 0 0 0 0 0 0 0 0 0 0 0 0 0 0 127 0" result="hardAlpha"/>
<feOffset dx="-3.04941" dy="-1.16706"/>
<feGaussianBlur stdDeviation="3.99059"/>
<feComposite in2="hardAlpha" operator="arithmetic" k2="-1" k3="1"/>
<feColorMatrix type="matrix" values="0 0 0 0 0.980392 0 0 0 0 0.980392 0 0 0 0 0.980392 0 0 0 0.22 0"/>
<feBlend mode="normal" in2="shape" result="effect1_innerShadow_1_1197"/>
</filter>
<filter id="filter3_i_1_1197" x="37.0096" y="39.892" width="28.4612" height="20.2259" filterUnits="userSpaceOnUse" color-interpolation-filters="sRGB">
<feFlood flood-opacity="0" result="BackgroundImageFix"/>
<feBlend mode="normal" in="SourceGraphic" in2="BackgroundImageFix" result="shape"/>
<feColorMatrix in="SourceAlpha" type="matrix" values="0 0 0 0 0 0 0 0 0 0 0 0 0 0 0 0 0 0 127 0" result="hardAlpha"/>
<feOffset dx="-3.04941" dy="-1.16706"/>
<feGaussianBlur stdDeviation="3.99059"/>
<feComposite in2="hardAlpha" operator="arithmetic" k2="-1" k3="1"/>
<feColorMatrix type="matrix" values="0 0 0 0 0.980392 0 0 0 0 0.980392 0 0 0 0 0.980392 0 0 0 0.22 0"/>
<feBlend mode="normal" in2="shape" result="effect1_innerShadow_1_1197"/>
</filter>
<filter id="filter4_i_1_1197" x="37.0096" y="20.8349" width="28.4612" height="20.2259" filterUnits="userSpaceOnUse" color-interpolation-filters="sRGB">
<feFlood flood-opacity="0" result="BackgroundImageFix"/>
<feBlend mode="normal" in="SourceGraphic" in2="BackgroundImageFix" result="shape"/>
<feColorMatrix in="SourceAlpha" type="matrix" values="0 0 0 0 0 0 0 0 0 0 0 0 0 0 0 0 0 0 127 0" result="hardAlpha"/>
<feOffset dx="-3.04941" dy="-1.16706"/>
<feGaussianBlur stdDeviation="3.99059"/>
<feComposite in2="hardAlpha" operator="arithmetic" k2="-1" k3="1"/>
<feColorMatrix type="matrix" values="0 0 0 0 0.980392 0 0 0 0 0.980392 0 0 0 0 0.980392 0 0 0 0.22 0"/>
<feBlend mode="normal" in2="shape" result="effect1_innerShadow_1_1197"/>
</filter>
<linearGradient id="paint0_linear_1_1197" x1="270.667" y1="0.667969" x2="258.459" y2="109.596" gradientUnits="userSpaceOnUse">
<stop stop-color="#D6D3C2" stop-opacity="0.2"/>
<stop offset="1" stop-color="#5C5C5C" stop-opacity="0.14"/>
</linearGradient>
<linearGradient id="paint1_linear_1_1197" x1="270.667" y1="0.667969" x2="258.459" y2="109.596" gradientUnits="userSpaceOnUse">
<stop stop-color="white"/>
<stop offset="1" stop-color="white" stop-opacity="0"/>
</linearGradient>
<linearGradient id="paint2_linear_1_1197" x1="59.1181" y1="22.002" x2="34.2257" y2="56.6936" gradientUnits="userSpaceOnUse">
<stop stop-color="#D6D3C2" stop-opacity="0.2"/>
<stop offset="1" stop-color="#5C5C5C" stop-opacity="0.14"/>
</linearGradient>
<linearGradient id="paint3_linear_1_1197" x1="59.1181" y1="22.002" x2="34.2257" y2="56.6936" gradientUnits="userSpaceOnUse">
<stop stop-color="#999999"/>
<stop offset="1" stop-color="#141414"/>
</linearGradient>
<linearGradient id="paint4_linear_1_1197" x1="74.9999" y1="34.7075" x2="70.139" y2="50.7524" gradientUnits="userSpaceOnUse">
<stop stop-color="#D6D3C2" stop-opacity="0.2"/>
<stop offset="1" stop-color="#5C5C5C" stop-opacity="0.14"/>
</linearGradient>
<linearGradient id="paint5_linear_1_1197" x1="74.9999" y1="34.7075" x2="70.139" y2="50.7524" gradientUnits="userSpaceOnUse">
<stop stop-color="#999999"/>
<stop offset="1" stop-color="#141414"/>
</linearGradient>
<linearGradient id="paint6_linear_1_1197" x1="65.4708" y1="41.0591" x2="58.5648" y2="65.374" gradientUnits="userSpaceOnUse">
<stop stop-color="#D6D3C2" stop-opacity="0.2"/>
<stop offset="1" stop-color="#5C5C5C" stop-opacity="0.14"/>
</linearGradient>
<linearGradient id="paint7_linear_1_1197" x1="65.4708" y1="41.0591" x2="58.5648" y2="65.374" gradientUnits="userSpaceOnUse">
<stop stop-color="#999999"/>
<stop offset="1" stop-color="#141414"/>
</linearGradient>
<linearGradient id="paint8_linear_1_1197" x1="65.4708" y1="22.002" x2="58.5648" y2="46.3168" gradientUnits="userSpaceOnUse">
<stop stop-color="#D6D3C2" stop-opacity="0.2"/>
<stop offset="1" stop-color="#5C5C5C" stop-opacity="0.14"/>
</linearGradient>
<linearGradient id="paint9_linear_1_1197" x1="65.4708" y1="22.002" x2="58.5648" y2="46.3168" gradientUnits="userSpaceOnUse">
<stop stop-color="#999999"/>
<stop offset="1" stop-color="#141414"/>
</linearGradient>
<linearGradient id="paint10_linear_1_1197" x1="78.7064" y1="67.268" x2="106.104" y2="-16.6241" gradientUnits="userSpaceOnUse">
<stop stop-color="#B8956D"/>
<stop offset="1" stop-color="#CCBFAC"/>
</linearGradient>
</defs>
</svg>
