<svg width="33" height="32" viewBox="0 0 33 32" fill="none" xmlns="http://www.w3.org/2000/svg">
<path d="M16.0148 9.62317V15.0437H5.31159C4.77121 15.0437 4.33264 15.4721 4.33264 16C4.33264 16.5279 4.77121 16.9564 5.31159 16.9564H16.0148V22.3769C16.0148 22.725 16.208 23.0463 16.5213 23.2147C16.8332 23.383 17.2144 23.3715 17.5146 23.1866L27.8745 16.8097C28.1603 16.6338 28.3326 16.329 28.3326 16C28.3326 15.6711 28.1603 15.3663 27.8745 15.1903L21.4278 11.2234C20.9722 10.9416 20.3666 11.0755 20.0781 11.5218C19.791 11.9694 19.928 12.5598 20.3862 12.8416L25.5159 16L17.9727 20.6453V9.62317C17.9727 9.09527 17.5341 8.66683 16.9938 8.66683C16.4534 8.66683 16.0148 9.09527 16.0148 9.62317Z" fill="white"/>
<path d="M16.0148 9.62317V15.0437H5.31159C4.77121 15.0437 4.33264 15.4721 4.33264 16C4.33264 16.5279 4.77121 16.9564 5.31159 16.9564H16.0148V22.3769C16.0148 22.725 16.208 23.0463 16.5213 23.2147C16.8332 23.383 17.2144 23.3715 17.5146 23.1866L27.8745 16.8097C28.1603 16.6338 28.3326 16.329 28.3326 16C28.3326 15.6711 28.1603 15.3663 27.8745 15.1903L21.4278 11.2234C20.9722 10.9416 20.3666 11.0755 20.0781 11.5218C19.791 11.9694 19.928 12.5598 20.3862 12.8416L25.5159 16L17.9727 20.6453V9.62317C17.9727 9.09527 17.5341 8.66683 16.9938 8.66683C16.4534 8.66683 16.0148 9.09527 16.0148 9.62317Z" fill="url(#paint0_linear_1_1622)"/>
<defs>
<linearGradient id="paint0_linear_1_1622" x1="28.3326" y1="23.3335" x2="22.2612" y2="3.24753" gradientUnits="userSpaceOnUse">
<stop stop-color="#E4C2A2"/>
<stop offset="1" stop-color="#FFE9BE"/>
</linearGradient>
</defs>
</svg>
